<svg xmlns="http://www.w3.org/2000/svg" viewBox="0 0 32 40" x="0px" y="0px"><g data-name="Layer 2"><path d="M2,9V5A3,3,0,0,1,5,2H9A1,1,0,0,1,9,4H5A1,1,0,0,0,4,5V9A1,1,0,0,1,2,9ZM27,2H23a1,1,0,0,0,0,2h4a1,1,0,0,1,1,1V9a1,1,0,0,0,2,0V5A3,3,0,0,0,27,2Zm2,20a1,1,0,0,0-1,1v4a1,1,0,0,1-1,1H23a1,1,0,0,0,0,2h4a3,3,0,0,0,3-3V23A1,1,0,0,0,29,22ZM9,28H5a1,1,0,0,1-1-1V23a1,1,0,0,0-2,0v4a3,3,0,0,0,3,3H9a1,1,0,0,0,0-2ZM3,16a1,1,0,0,0,1,1H28a1,1,0,0,0,0-2H4A1,1,0,0,0,3,16Z"/></g><text x="0" y="47" fill="#000000" font-size="5px" font-weight="bold" font-family="'Helvetica Neue', Helvetica, Arial-Unicode, Arial, Sans-serif">Created by scorpicon</text><text x="0" y="52" fill="#000000" font-size="5px" font-weight="bold" font-family="'Helvetica Neue', Helvetica, Arial-Unicode, Arial, Sans-serif">from the Noun Project</text></svg>